<svg width="34" height="42" viewBox="0 0 34 42" fill="none" xmlns="http://www.w3.org/2000/svg">
<path d="M1.6 37.7C1 37.7 0.5 37.2 0.5 36.6V7.6C0.5 3.8 3.6 0.699997 7.4 0.699997H22.1C22.7 0.699997 23.2 1.2 23.2 1.8C23.2 2.4 22.7 2.9 22.1 2.9H7.5C4.9 2.9 2.7 5 2.7 7.7V36.5C2.7 36.6 2.7 36.7 2.7 36.7C2.6 37.2 2.2 37.7 1.6 37.7Z" fill="white"/>
<path d="M32.4001 34.6C31.8001 34.6 31.3001 34.1 31.3001 33.5V2.7H28.2001C27.6001 2.7 27.1001 2.2 27.1001 1.6C27.1001 1 27.6001 0.5 28.2001 0.5H32.3001C32.9001 0.5 33.4001 1 33.4001 1.6V33.5C33.4001 34.1 32.9001 34.6 32.4001 34.6Z" fill="white"/>
<path d="M32.4001 41.8H5.2001C2.7001 41.8 0.600098 39.7 0.600098 37.2C0.600098 37 0.600097 36.8 0.700097 36.5C0.700097 36.5 0.700097 36.5 0.700097 36.4C0.900097 35.4 1.3001 34.5 2.0001 33.9C2.9001 33 4.1001 32.6 5.3001 32.6H32.5001C33.1001 32.6 33.6001 33.1 33.6001 33.7C33.6001 34.3 33.1001 34.8 32.5001 34.8H5.2001C4.5001 34.8 3.9001 35 3.4001 35.5C3.0001 35.9 2.7001 36.4 2.7001 37C2.7001 37.1 2.7001 37.2 2.7001 37.3C2.7001 38.7 3.9001 39.8 5.2001 39.8H32.4001C33.0001 39.8 33.5001 40.3 33.5001 40.9C33.4001 41.3 32.9001 41.8 32.4001 41.8Z" fill="white"/>
<path d="M30.3998 41.2C29.7998 41.2 29.2998 40.8 29.2998 40.3V34.1C29.2998 33.6 29.7998 33.2 30.3998 33.2C30.9998 33.2 31.4998 33.6 31.4998 34.1V40.3C31.3998 40.7 30.8998 41.2 30.3998 41.2Z" fill="white"/>
<path d="M7.80019 34.6C7.20019 34.6 6.7002 34.1 6.7002 33.5V1.8C6.7002 1.2 7.20019 0.699997 7.80019 0.699997C8.40019 0.699997 8.90019 1.2 8.90019 1.8V33.6C8.80019 34.1 8.30019 34.6 7.80019 34.6Z" fill="white"/>
<path d="M28.2999 11C28.0999 11 27.7999 10.9 27.5999 10.7L25.1999 8.4L22.7999 10.8C22.4999 11.1 22.0999 11.2 21.5999 11C21.1999 10.8 20.8999 10.5 20.8999 10V1.8C20.8999 1.2 21.3999 0.699997 21.9999 0.699997H28.1999C28.7999 0.699997 29.2999 1.2 29.2999 1.8V10C29.2999 10.4 29.0999 10.8 28.5999 11C28.5999 11 28.3999 11 28.2999 11ZM25.1999 5.9C25.3999 5.9 25.6999 6 25.8999 6.2L27.1999 7.5V2.8H23.0999V7.5L24.3999 6.2C24.6999 6 24.9999 5.9 25.1999 5.9Z" fill="white"/>
</svg>
