<svg width="41" height="41" viewBox="0 0 41 41" fill="none" xmlns="http://www.w3.org/2000/svg">
<path d="M1.19979 33.5C1.19979 33.6 1.29979 33.6 1.29979 33.6C1.39979 33.7 1.59979 33.8 1.79979 33.8C1.99979 33.8 2.29979 33.8 2.49979 33.6L4.09979 32.1L4.19979 32.2L8.19979 36.5L8.29979 36.6L6.69979 38.1C6.49979 38.3 6.39979 38.5 6.49979 38.8C6.49979 39 6.69979 39.3 6.89979 39.4C8.99979 40.8 11.8998 40.6 13.6998 38.8L22.6998 30.2C24.2998 28.7 24.7998 26.4 24.0998 24.4C25.9998 25.2 28.3998 24.9 29.9998 23.3L38.9998 14.7C40.7998 13 41.1998 10.1 39.8998 7.90001C39.7998 7.70001 39.5998 7.50001 39.2998 7.50001C39.0998 7.50001 38.7998 7.50001 38.5998 7.70001L36.6998 9.50001L36.5998 9.40001L32.5998 5.10001L32.4998 5.00001L34.3998 3.20001C34.5998 3.00001 34.6998 2.80001 34.5998 2.50001C34.5998 2.30001 34.3998 2.00001 34.1998 1.90001C32.0998 0.500012 29.1998 0.700012 27.3998 2.50001L18.3998 11.1C16.7998 12.6 16.2998 14.9 16.9998 16.9C15.0998 16.1 12.6998 16.4 11.0998 18L2.09979 26.6C0.299792 28.5 -0.100208 31.3 1.19979 33.5ZM12.2998 19.4C13.7998 17.9 16.2998 18 17.7998 19.6L21.6998 23.7C23.1998 25.2 23.0998 27.7 21.4998 29.2L12.4998 37.8C11.4998 38.8 9.99979 39.1 8.59979 38.7L10.5998 36.8L11.5998 35.8L16.2998 31.4L17.2998 30.4L18.8998 28.9C20.3998 27.5 19.4998 24.4 18.1998 23.1C16.8998 21.7 13.8998 20.7 12.3998 22.1L10.7998 23.6L9.79979 24.6L5.09979 29L4.09979 30L2.09979 31.9C1.69979 30.6 2.09979 29.1 3.19979 28.1L12.2998 19.4ZM28.5998 3.90001C29.5998 2.90001 31.0998 2.60001 32.4998 3.00001L30.1998 5.20001L29.1998 6.20001L24.7998 10.4L23.7998 11.4L22.1998 12.9C20.6998 14.3 21.5998 17.4 22.8998 18.7C24.1998 20.1 27.1998 21.1 28.6998 19.7L30.2998 18.2L31.2998 17.2L35.6998 13L36.6998 12L38.9998 9.80001C39.3998 11.1 38.9998 12.6 37.8998 13.6L28.8998 22.2C27.3998 23.7 24.8998 23.6 23.3998 22L19.3998 18C17.8998 16.5 17.9998 14 19.5998 12.5L28.5998 3.90001ZM31.4998 6.40001L35.4998 10.7C35.5998 10.8 35.5998 10.9 35.4998 10.9L34.4998 11.9C34.3998 12 34.2998 12 34.2998 11.9L30.2998 7.60001C30.1998 7.50001 30.1998 7.40001 30.2998 7.40001L31.2998 6.40001C31.2998 6.40001 31.3998 6.40001 31.4998 6.40001ZM28.9998 17C28.8998 17.1 28.7998 17.1 28.7998 17L24.7998 12.7C24.6998 12.6 24.6998 12.5 24.7998 12.5L25.7998 11.5C25.8998 11.4 25.9998 11.4 25.9998 11.5L29.9998 15.8C30.0998 15.9 30.0998 16 29.9998 16L28.9998 17ZM23.4998 13.8L23.5998 13.9L27.5998 18.2L27.6998 18.3L27.3998 18.6C26.7998 19.2 24.6998 18.6 23.8998 17.7C23.0998 16.8 22.4998 14.8 23.1998 14.1L23.4998 13.8ZM31.1998 14.7L27.1998 10.4L27.0998 10.3L28.8998 8.60001L28.9998 8.70001L32.9998 13L33.0998 13.1L31.2998 14.8C31.2998 14.8 31.2998 14.8 31.1998 14.7ZM9.29979 35.5L5.29979 31.2C5.19979 31.1 5.19979 31 5.29979 31L6.29979 30C6.39979 29.9 6.49979 29.9 6.49979 30L10.4998 34.3C10.5998 34.4 10.5998 34.5 10.4998 34.5L9.49979 35.5C9.39979 35.6 9.29979 35.6 9.29979 35.5ZM11.9998 24.6C12.0998 24.5 12.1998 24.5 12.1998 24.6L16.1998 28.9C16.2998 29 16.2998 29.1 16.1998 29.1L15.1998 30.1C15.0998 30.2 14.9998 30.2 14.9998 30.1L10.9998 25.8C10.8998 25.7 10.8998 25.6 10.9998 25.6L11.9998 24.6ZM17.4998 27.9L17.3998 27.8L13.3998 23.5L13.2998 23.4L13.5998 23.1C14.1998 22.5 16.2998 23.1 17.0998 24C17.8998 24.9 18.4998 27 17.7998 27.6L17.4998 27.9ZM9.79979 26.9L13.7998 31.2L13.8998 31.3L11.6998 33.3L11.5998 33.2L7.59979 28.9L7.49979 28.8L9.69979 26.8L9.79979 26.9Z" fill="white" stroke="white" stroke-width="0.1871" stroke-miterlimit="10"/>
</svg>
