<svg width="42" height="40" viewBox="0 0 42 40" fill="none" xmlns="http://www.w3.org/2000/svg">
<path d="M36.8997 26.1C36.8997 25.6 36.4997 25.3 35.9997 25.4C34.8997 25.5 33.6997 25.5 32.7997 24.8C32.4997 24.6 31.9997 24.6 31.6997 24.9C31.3997 25.2 31.3997 25.7 31.7997 26C32.5997 26.6 33.6997 27.1 35.2997 27C35.2997 28.4 35.2997 29.9 35.1997 30.6C34.9997 31.5 34.4997 31.9 32.7997 33.8C32.4997 34.1 32.4997 34.6 32.7997 34.9C33.0997 35.2 33.5997 35.2 33.8997 34.9C35.5997 33.2 36.4997 32.5 36.7997 31C36.9997 29.9 36.8997 28.7 36.8997 26.1Z" fill="white" stroke="white" stroke-width="0.4616" stroke-miterlimit="10"/>
<path d="M7.49971 11.9C7.49971 11.4 7.09971 11 6.59971 11C6.09971 11 5.69971 11.4 5.69971 11.9C5.69971 19.5 13.0997 22.1 20.1997 29.2C20.5997 29.6 21.0997 29.6 21.4997 29.2C21.8997 28.8 21.8997 28.3 21.4997 27.9C14.3997 20.9 7.49971 18.4 7.49971 11.9Z" fill="white" stroke="white" stroke-width="0.4616" stroke-miterlimit="10"/>
<path d="M40.4998 22.8C40.4998 22.2 39.9998 21.9 39.4998 22C38.1998 22.2 37.1998 22.2 36.3998 22.1C39.4998 19 41.2998 15.8 41.2998 11.4C41.2998 5.49999 36.4998 0.799988 30.5998 0.799988C25.6998 0.799988 22.9998 3.09999 20.7998 7.09999C18.5998 3.19999 15.8998 0.799988 10.9998 0.799988C5.0998 0.799988 0.299805 5.49999 0.299805 11.4C0.299805 21.7 10.3998 25.3 20.1998 35C20.5998 35.4 21.0998 35.4 21.4998 35C22.4998 34 23.5998 32.9 24.7998 32C25.3998 34.7 26.8998 36 30.0998 39.1C30.1998 39.2 30.4998 39.4 30.6998 39.4H34.2998C34.4998 39.4 34.7998 39.3 34.8998 39.1C38.1998 35.7 39.5998 34.6 40.1998 32C40.5998 30 40.4998 27.6 40.4998 22.8ZM20.7998 33C11.1998 23.7 2.0998 20.3 2.0998 11.3C2.0998 6.39999 6.0998 2.49999 10.9998 2.49999C15.0998 2.49999 17.3998 4.19999 19.9998 9.29999C20.3998 9.89999 21.2998 9.89999 21.5998 9.29999C24.1998 4.19999 26.4998 2.49999 30.5998 2.49999C35.4998 2.49999 39.4998 6.49999 39.4998 11.3C39.4998 15 37.9998 18 34.3998 21.5C33.8998 21.3 33.4998 21 33.0998 20.7C32.7998 20.4 32.3998 20.4 31.9998 20.6C29.9998 21.9 27.7998 22.3 25.4998 21.9C24.8998 21.8 24.3998 22.2 24.3998 22.7C24.3998 25.6 24.3998 28 24.4998 29.6C23.0998 30.9 21.8998 31.9 20.7998 33ZM38.3998 31.4C37.9998 33.4 36.8998 34.2 33.7998 37.4H30.8998C29.0998 35.6 27.7998 34.3 26.9998 33.2C25.9998 31.5 25.9998 29.6 25.9998 23.9C28.1998 24.1 30.3998 23.7 32.1998 22.6C34.0998 23.9 36.2998 24.1 38.5998 23.9C38.6998 27.5 38.7998 29.9 38.3998 31.4Z" fill="white" stroke="white" stroke-width="0.4616" stroke-miterlimit="10"/>
</svg>
