<svg width="48" height="33" viewBox="0 0 48 33" fill="none" xmlns="http://www.w3.org/2000/svg">
<path d="M7.19994 17.9C6.39994 18.1 5.69994 19 5.69994 20C5.69994 20.5 5.79994 21 6.09994 21.3L5.29994 26.8C5.29994 27 5.29994 27.3 5.39994 27.5C5.49994 27.7 5.69994 27.8 5.89994 27.8H9.09994C9.29994 27.8 9.49994 27.7 9.59994 27.5C9.69994 27.3 9.79994 27.1 9.79994 26.9L9.09994 21.2C9.29994 20.9 9.39994 20.5 9.39994 20.1C9.39994 19.3 8.99994 18.6 8.49994 18.2V15.2L12.6999 17.4V29.7C12.6999 31.2 13.6999 32.5 14.9999 32.5H34.0999C35.3999 32.5 36.3999 31.3 36.3999 29.7V16.6L46.3999 11.5C46.6999 11.4 46.7999 11.1 46.7999 10.7C46.7999 10.4 46.5999 10.1 46.2999 10L23.6999 0.800006C23.5999 0.700006 23.3999 0.700006 23.1999 0.800006C15.3999 4.30001 2.69994 9.90001 1.49994 9.90001C1.19994 9.90001 0.899939 10.2 0.799939 10.5C0.699939 10.9 0.899939 11.2 1.19994 11.4L7.09994 14.4V17.9H7.19994ZM6.79994 26.1L7.49994 21.2C7.49994 20.9 7.49994 20.6 7.29994 20.4C7.19994 20.3 7.09994 20.1 7.09994 19.9C7.09994 19.6 7.29994 19.3 7.59994 19.3C7.89994 19.3 8.09994 19.6 8.09994 19.9C8.09994 20.1 7.99994 20.2 7.99994 20.3C7.89994 20.5 7.79994 20.7 7.79994 20.9L8.39994 26H6.79994V26.1ZM35.0999 29.7C35.0999 30.3 34.6999 30.9 34.0999 30.9H14.9999C14.4999 30.9 13.9999 30.4 13.9999 29.7V18L23.4999 22.9C23.5999 22.9 23.6999 23 23.7999 23C23.8999 23 23.9999 23 24.0999 22.9L35.0999 17.2V29.7ZM3.59994 10.9C8.49994 9.10001 20.2999 3.80001 23.4999 2.40001L44.2999 10.8L23.8999 21.3L10.3999 14.3L21.7999 12.5C22.2999 12.9 22.9999 13.1 23.8999 13.1C25.4999 13.1 26.6999 12.4 26.6999 11.4C26.6999 10.4 25.4999 9.70001 23.8999 9.70001C22.4999 9.70001 21.4999 10.3 21.1999 11L7.99994 13.1L3.59994 10.9ZM21.7999 11.4C21.7999 11 22.5999 10.5 23.8999 10.5C25.1999 10.5 25.9999 11 25.9999 11.4C25.9999 11.8 25.1999 12.3 23.8999 12.3C22.5999 12.4 21.7999 11.8 21.7999 11.4Z" fill="white" stroke="white" stroke-width="0.9168" stroke-miterlimit="10"/>
</svg>
