<svg width="42" height="42" viewBox="0 0 42 42" fill="none" xmlns="http://www.w3.org/2000/svg">
<path d="M15.1998 34.4C15.8998 34.4 16.5998 35 16.5998 35.8C16.5998 36.5 15.9998 37.2 15.1998 37.2C14.4998 37.2 13.7998 36.5 13.7998 35.7C13.7998 34.9 14.4998 34.4 15.1998 34.4Z" fill="white"/>
<path d="M27.1998 34.4C27.8998 34.4 28.5998 35 28.5998 35.8C28.5998 36.5 27.9998 37.2 27.1998 37.2C26.4998 37.2 25.7998 36.5 25.7998 35.7C25.7998 34.9 26.4998 34.4 27.1998 34.4Z" fill="white"/>
<path d="M15.1998 4.90002C15.8998 4.90002 16.5998 5.50002 16.5998 6.30002C16.5998 7.10002 15.9998 7.70002 15.1998 7.70002C14.4998 7.70002 13.7998 7.00002 13.7998 6.20002C13.7998 5.40002 14.4998 4.90002 15.1998 4.90002Z" fill="white"/>
<path d="M27.1998 4.90002C27.8998 4.90002 28.5998 5.50002 28.5998 6.30002C28.5998 7.10002 27.9998 7.70002 27.1998 7.70002C26.4998 7.70002 25.7998 7.00002 25.7998 6.20002C25.7998 5.40002 26.4998 4.90002 27.1998 4.90002Z" fill="white"/>
<path d="M21.3001 41.8C15.8001 41.8 10.6001 39.6 6.7001 35.7C2.8001 31.8 0.600098 26.5 0.600098 21.1C0.600098 15.6 2.8001 10.4 6.7001 6.50002C10.6001 2.60002 15.8001 0.400024 21.3001 0.400024C26.8001 0.400024 32.0001 2.60002 35.9001 6.50002C39.8001 10.4 42.0001 15.7 42.0001 21.1C42.0001 26.6 39.8001 31.8 35.9001 35.7C32.0001 39.7 26.8001 41.8 21.3001 41.8ZM21.3001 2.20002C10.9001 2.20002 2.3001 10.7 2.3001 21.2C2.3001 31.7 10.8001 40 21.3001 40C31.8001 40 40.3001 31.5 40.3001 21C40.2001 10.6 31.7001 2.20002 21.3001 2.20002Z" fill="white"/>
<path d="M21.3 38.2C18.7 38.2 17.3 33.9 16.7 30.3C16.4 28.8 16.2 27.2 16.1 25.5C16 24.7 16 23.8 16 23C16 22.4 16 21.8 16 21.1C16 20.5 16 19.8 16 19.2C16 18.3 16.1 17.5 16.1 16.7C16.2 15 16.5 13.4 16.7 11.9C17.3 8.3 18.7 4 21.3 4C23.9 4 25.3 8.3 25.9 11.9C26.2 13.4 26.4 15 26.5 16.7C26.6 17.5 26.6 18.4 26.6 19.2C26.6 19.8 26.6 20.4 26.6 21.1C26.6 21.7 26.6 22.4 26.6 23C26.6 23.9 26.5 24.7 26.5 25.5C26.4 27.2 26.1 28.8 25.9 30.3C25.2 33.9 23.9 38.2 21.3 38.2ZM21.3 5.8C20.7 5.8 19.4 7.5 18.4 12.2C18.1 13.6 18 15.2 17.8 16.8C17.7 17.6 17.7 18.4 17.7 19.3C17.7 19.9 17.7 20.5 17.7 21.1C17.7 21.7 17.7 22.3 17.7 22.9C17.7 23.8 17.8 24.6 17.8 25.4C17.9 27.1 18.1 28.6 18.4 30C19.3 34.7 20.6 36.4 21.3 36.4C21.9 36.4 23.2 34.7 24.2 30C24.5 28.6 24.6 27 24.8 25.4C24.9 24.6 24.9 23.8 24.9 22.9C24.9 22.3 24.9 21.7 24.9 21.1C24.9 20.5 24.9 19.9 24.9 19.3C24.9 18.4 24.8 17.6 24.8 16.8C24.7 15.1 24.5 13.6 24.2 12.2C23.2 7.5 21.9 5.8 21.3 5.8Z" fill="white"/>
<path d="M11.1002 33.9C10.3002 33.9 9.70022 33.7 9.20022 33.2C7.30022 31.3 9.40022 27.4 11.5002 24.3C12.4002 23.1 13.4002 21.8 14.5002 20.5C15.0002 19.9 15.6002 19.2 16.2002 18.6C16.6002 18.2 17.1002 17.7 17.5002 17.2C17.9002 16.8 18.4002 16.3 18.9002 15.9C19.5002 15.3 20.1002 14.7 20.8002 14.2C22.1002 13.1 23.4002 12.1 24.6002 11.2C26.6002 9.80001 29.4002 8.20001 31.6002 8.20001C32.4002 8.20001 33.0002 8.40001 33.5002 8.90001C35.4002 10.8 33.3002 14.7 31.2002 17.8C30.3002 19 29.3002 20.3 28.2002 21.6C27.7002 22.2 27.1002 22.9 26.5002 23.5C26.0002 24 25.6002 24.5 25.2002 25C24.8002 25.4 24.3002 25.9 23.8002 26.3C23.2002 26.9 22.6002 27.5 21.9002 28C20.6002 29.1 19.3002 30.1 18.1002 31C16.0002 32.2 13.2002 33.9 11.1002 33.9ZM31.4002 10C30.1002 10 27.9002 11 25.5002 12.7C24.3002 13.5 23.0002 14.4 21.8002 15.5C21.2002 16 20.6002 16.6 20.0002 17.2C19.6002 17.6 19.1002 18.1 18.7002 18.5C18.3002 18.9 17.8002 19.4 17.4002 19.8C16.8002 20.4 16.3002 21 15.7002 21.6C14.6002 22.8 13.7002 24 12.9002 25.3C10.2002 29.3 9.90022 31.4 10.4002 31.9C10.5002 32 10.8002 32 11.0002 32C12.3002 32 14.5002 31 16.9002 29.3C18.1002 28.5 19.3002 27.6 20.6002 26.5C21.2002 26 21.8002 25.4 22.4002 24.8C22.8002 24.4 23.3002 23.9 23.7002 23.5C24.1002 23.1 24.6002 22.6 25.0002 22.2C25.6002 21.6 26.1002 21 26.7002 20.4C27.8002 19.2 28.7002 17.9 29.5002 16.7C32.2002 12.7 32.5002 10.6 32.0002 10.1C31.9002 10.1 31.7002 10 31.4002 10Z" fill="white"/>
<path d="M21.3002 26.5C20.7002 26.5 20.0002 26.5 19.4002 26.5C18.5002 26.5 17.7002 26.4 16.9002 26.4C15.2002 26.3 13.6002 26 12.1002 25.8C8.5002 25.2 4.2002 23.8 4.2002 21.2C4.2002 18.6 8.5002 17.2 12.1002 16.6C13.6002 16.3 15.2002 16.1 16.9002 16C17.7002 15.9 18.6002 15.9 19.4002 15.9C20.6002 15.8 21.9002 15.8 23.1002 15.9C24.0002 15.9 24.8002 16 25.6002 16C27.3002 16.1 28.9002 16.4 30.4002 16.6C34.0002 17.2 38.3002 18.6 38.3002 21.2C38.3002 23.8 34.0002 25.2 30.4002 25.8C28.9002 26.1 27.3002 26.3 25.6002 26.4C24.8002 26.5 23.9002 26.5 23.1002 26.5C22.6002 26.5 21.9002 26.5 21.3002 26.5ZM21.3002 17.5C20.7002 17.5 20.1002 17.5 19.5002 17.5C18.6002 17.5 17.8002 17.6 17.1002 17.6C15.4002 17.7 13.9002 17.9 12.5002 18.2C7.8002 19.1 6.1002 20.4 6.1002 21.1C6.1002 21.7 7.8002 23 12.5002 24C13.9002 24.3 15.5002 24.4 17.1002 24.6C17.9002 24.7 18.7002 24.7 19.5002 24.7C20.7002 24.8 22.0002 24.8 23.2002 24.7C24.1002 24.7 24.9002 24.6 25.6002 24.6C27.3002 24.5 28.8002 24.3 30.2002 24C34.9002 23.1 36.6002 21.8 36.6002 21.1C36.6002 20.5 34.9002 19.2 30.2002 18.2C28.8002 17.9 27.2002 17.8 25.6002 17.6C24.8002 17.5 24.0002 17.5 23.2002 17.5C22.5002 17.5 21.9002 17.5 21.3002 17.5Z" fill="white"/>
<path d="M31.4 33.9C29.3 33.9 26.4 32.2 24.4 30.9C23.2 30 21.9 29 20.6 27.9C20 27.4 19.3 26.8 18.7 26.2C18.3 25.8 17.8 25.3 17.3 24.9C16.9 24.5 16.4 24 16 23.5C15.4 22.9 14.8 22.3 14.3 21.6C13.2 20.3 12.2 19 11.3 17.8C9.20002 14.8 7.10003 10.7 9.00003 8.90001C9.40003 8.50001 10.1 8.20001 10.9 8.20001C13 8.20001 15.9 9.90001 17.9 11.2C19.1 12.1 20.4 13.1 21.7 14.2C22.3 14.7 23 15.3 23.6 15.9C24 16.3 24.5 16.8 25 17.2C25.4 17.6 25.9 18.1 26.3 18.6C26.9 19.2 27.5 19.8 28 20.5C29.1 21.8 30.1 23.1 31 24.3C33.1 27.3 35.2 31.4 33.3 33.2C32.9 33.6 32.3 33.9 31.4 33.9ZM11.1 10C10.9 10 10.6 10 10.5 10.1C10.1 10.5 10.4 12.8 13 16.7C13.8 17.9 14.7 19.2 15.8 20.4C16.3 21 16.9 21.6 17.5 22.2C17.9 22.6 18.4 23.1 18.8 23.5C19.2 23.9 19.7 24.4 20.1 24.8C20.7 25.4 21.3 25.9 21.9 26.5C23.1 27.6 24.3 28.5 25.6 29.3C28.1 31 30.3 32 31.5 32C31.7 32 32 32 32.1 31.9C32.5 31.5 32.2 29.2 29.6 25.3C28.8 24.1 27.9 22.8 26.8 21.6C26.3 21 25.7 20.4 25.1 19.8C24.7 19.4 24.2 18.9 23.8 18.5C23.4 18.1 22.9 17.6 22.5 17.2C21.9 16.6 21.3 16 20.7 15.5C19.5 14.4 18.3 13.5 17 12.7C14.5 11.1 12.3 10 11.1 10Z" fill="white"/>
</svg>
